# xmcd
#
# Track frame offsets:
#	150
#	12931
#	28579
#	39017
#	50434
#	68452
#	82066
#	89552
#	106601
#	120146
#	139283
#	149661
#	166220
#	179014
#	191870
#	205772
#	219932
#	233071
#	242845
#	255047
#	265516
#	278023
#	299939
#	320527
#	336566
#
# Disc length: 4640 seconds
#
# Revision: 0
# Processed by: cddbd v1.5.1PL0 Copyright (c) Steve Scherf et al.
# Submitted via: EasyCDDAExtractor 4.6.9.1
#
DISCID=69121e19
DTITLE=The Outlaws - Wanted!
DYEAR=1996
DGENRE=Country
TTITLE0=My Heroes Have Always Been Cowboys
TTITLE1=Honky Tonk Heroes
TTITLE2=I'm Looking For Blue Eyes
TTITLE3=You Mean To Say
TTITLE4=Suspicious Minds
TTITLE5=Good Hearted Woman
TTITLE6=Heaven Or Hell
TTITLE7=Me And Paul
TTITLE8=Yesterday's Wine
TTITLE9=T For Texas (Blue Yodel No. 1)
TTITLE10=Put Another Log On The Fire (Male Chauvinist's National Anthem)
TTITLE11=Slow Movin' Outlaw
TTITLE12=I'm A Ramblin' Man
TTITLE13=If She's Where You Like Livin' (You Won't Feel At Home With Me)
TTITLE14=It's Not Easy
TTITLE15=Why You Been Gone So Long
TTITLE16=Under Your Spell Again
TTITLE17=I Ain't The One
TTITLE18=You Left Me A Long, Long Time Ago
TTITLE19=Healing Hands Of Time
TTITLE20=Nowhere Road
TTITLE21=New Orleans
TTITLE22=Mendocino County Line
TTITLE23=You Are Always On My Mind
TTITLE24=On The Road Again
EXTD=
EXTT0=
EXTT1=
EXTT2=
EXTT3=
EXTT4=
EXTT5=
EXTT6=
EXTT7=
EXTT8=
EXTT9=
EXTT10=
EXTT11=
EXTT12=
EXTT13=
EXTT14=
EXTT15=
EXTT16=
EXTT17=
EXTT18=
EXTT19=
EXTT20=
EXTT21=
EXTT22=
EXTT23=
EXTT24=
PLAYORDER=
